<?xml version="1.0" encoding="utf-8"?>
<!-- Generator: Adobe Illustrator 23.1.0, SVG Export Plug-In . SVG Version: 6.00 Build 0)  -->
<svg version="1.1" id="Capa_1" xmlns="http://www.w3.org/2000/svg" xmlns:xlink="http://www.w3.org/1999/xlink" x="0px" y="0px"
	 viewBox="0 0 247.1 247.1" enable-background="new 0 0 247.1 247.1" xml:space="preserve">
<path fill="none" stroke="#000000" stroke-width="6.0376" stroke-miterlimit="10" d="M22.6,123.7c0,6.4,5.1,11.7,11.2,11.7h117
	l-32.7,44.7c-1.8,2.4-2.5,5.3-2,8.2c0.5,2.9,2.1,5.5,4.5,7.3c1.9,1.4,4.2,2.1,6.6,2.1c3.6,0,7-1.7,9.1-4.6l45.7-62.8
	c0,0,0.1-0.1,0.1-0.1c0.3-0.4,0.6-0.9,0.8-1.4c0.5-1.1,0.9-2.2,1.1-3.3c0.1-0.7,0.1-1.2,0.1-1.8c0-0.5,0-1.1-0.1-1.7
	c-0.2-1.2-0.5-2.3-1-3.3c0,0,0-0.1-0.1-0.1c-0.2-0.4-0.5-0.9-0.8-1.3c-0.1-0.1-0.1-0.2-0.2-0.3l-45.7-62.8c-2.1-2.9-5.5-4.7-9.1-4.7
	c-2.4,0-4.6,0.7-6.5,2.1c-2.4,1.8-4,4.4-4.5,7.3c-0.5,2.9,0.3,5.8,2,8.3l32.7,44.7h-117C27.7,112,22.6,117.4,22.6,123.7z"/>
<path fill="none" stroke="#000000" stroke-width="6.0376" stroke-miterlimit="10" d="M201.8,45.7v156c0,6.1,5.4,11.2,11.7,11.2
	s11.7-5.1,11.7-11.2v-156c0-6.1-5.4-11.2-11.7-11.2C207.1,34.5,201.8,39.6,201.8,45.7z"/>
</svg>
