<?xml version="1.0" encoding="utf-8"?>
<!-- Generator: Adobe Illustrator 23.1.0, SVG Export Plug-In . SVG Version: 6.00 Build 0)  -->
<svg version="1.1" id="Capa_1" xmlns="http://www.w3.org/2000/svg" xmlns:xlink="http://www.w3.org/1999/xlink" x="0px" y="0px"
	 viewBox="0 0 247.1 247.1" enable-background="new 0 0 247.1 247.1" xml:space="preserve">
<path fill="none" stroke="#000000" stroke-width="4" stroke-miterlimit="10" d="M59.8,176.3C48.1,162,41,143.7,41,123.7
	c0-45.8,37.1-82.9,82.9-82.9c18.8,0,36.1,6.2,50,16.8L59.8,176.3z"/>
<path fill="none" stroke="#000000" stroke-width="4" stroke-miterlimit="10" d="M188.5,71.9c10.4,13.9,18.3,33.1,18.3,51.8
	c0,45.8-37.1,82.9-82.9,82.9c-18.6,0-35.8-6.1-49.6-16.5L188.5,71.9z"/>
<path fill="none" stroke="#000000" stroke-width="4" stroke-miterlimit="10" d="M30.6,123.7c0-51.5,41.8-93.3,93.3-93.3
	c51.5,0,93.3,41.8,93.3,93.3c0,51.5-41.8,93.3-93.3,93.3C72.4,217.1,30.6,175.3,30.6,123.7z"/>
</svg>
